<svg xmlns="http://www.w3.org/2000/svg" viewBox="0 0 24 24" width="24" height="24" color="#111111" fill="none">
    <defs />
    <path fill="#141B34" d="M11.143,3.328 L14.505,5 C14.948,5.219 15.068,5.274 15.184,5.301 C15.299,5.328 15.43,5.333 15.921,5.333 L18.053,5.333 C18.951,5.333 19.701,5.333 20.297,5.415 C20.927,5.502 21.496,5.693 21.95,6.157 C22.403,6.62 22.587,7.194 22.67,7.831 C22.75,8.436 22.75,9.198 22.75,10.117 L22.75,16.966 C22.75,17.885 22.75,18.648 22.67,19.253 C22.587,19.889 22.403,20.463 21.95,20.926 C21.496,21.391 20.927,21.581 20.297,21.668 C19.702,21.75 18.952,21.75 18.056,21.75 L15.859,21.75 C15.463,21.75 15.148,21.75 14.84,21.678 C14.532,21.605 14.249,21.465 13.893,21.287 L13.838,21.26 L10.024,19.363 C9.062,18.885 8.732,18.732 8.403,18.687 C7.658,18.585 7.05,18.938 6.118,19.478 L6.118,19.478 L6.096,19.491 L6.061,19.511 L6.061,19.511 C5.442,19.871 4.927,20.169 4.502,20.361 C4.071,20.556 3.603,20.704 3.11,20.616 C2.577,20.52 2.098,20.234 1.758,19.812 C1.447,19.426 1.343,18.948 1.296,18.472 C1.25,18 1.25,17.398 1.25,16.669 L1.25,8.429 C1.25,7.878 1.25,7.411 1.287,7.025 C1.327,6.615 1.413,6.236 1.62,5.874 C1.827,5.51 2.108,5.245 2.441,5.005 C2.752,4.78 3.151,4.549 3.619,4.277 L3.619,4.277 L3.649,4.259 L4.907,3.53 C5.554,3.154 6.084,2.847 6.545,2.634 C7.003,2.422 7.438,2.282 7.914,2.255 C7.942,2.252 7.971,2.25 8,2.25 C8.01,2.25 8.019,2.25 8.028,2.251 C8.519,2.241 8.971,2.354 9.452,2.54 C9.926,2.722 10.474,2.995 11.142,3.328 L11.142,3.328 Z M10.582,17.966 L10.691,18.02 L14.25,19.789 L14.25,6.544 C14.137,6.492 14.02,6.434 13.893,6.37 L13.838,6.343 L10.506,4.686 C9.798,4.334 9.313,4.094 8.912,3.939 C8.856,3.917 8.802,3.898 8.75,3.88 L8.75,17.224 C9.301,17.328 9.837,17.595 10.582,17.966 Z M15.75,20.25 C15.802,20.25 15.859,20.25 15.921,20.25 L18,20.25 C18.965,20.25 19.611,20.248 20.092,20.182 C20.551,20.119 20.747,20.011 20.878,19.877 C21.011,19.741 21.121,19.533 21.183,19.057 C21.249,18.56 21.25,17.896 21.25,16.912 L21.25,10.172 C21.25,9.187 21.249,8.523 21.183,8.026 C21.121,7.55 21.011,7.343 20.878,7.206 C20.747,7.072 20.551,6.964 20.092,6.901 C19.611,6.835 18.965,6.833 18,6.833 L15.921,6.833 L15.859,6.833 L15.859,6.833 C15.822,6.833 15.786,6.833 15.75,6.833 Z M7.174,3.996 C6.784,4.176 6.314,4.447 5.63,4.845 L4.402,5.557 C3.895,5.851 3.563,6.045 3.319,6.221 C3.089,6.387 2.988,6.503 2.923,6.616 C2.858,6.73 2.809,6.88 2.78,7.17 C2.751,7.475 2.75,7.869 2.75,8.464 L2.75,16.628 C2.75,17.407 2.751,17.935 2.789,18.325 C2.828,18.718 2.896,18.833 2.926,18.871 C3.042,19.015 3.201,19.108 3.374,19.139 C3.411,19.146 3.533,19.153 3.884,18.994 C4.232,18.837 4.68,18.578 5.344,18.193 C5.396,18.163 5.45,18.131 5.505,18.099 L5.505,18.099 L5.505,18.099 C5.998,17.81 6.579,17.47 7.25,17.292 L7.25,3.961 C7.225,3.972 7.2,3.984 7.174,3.996 Z" />
</svg>