<svg xmlns="http://www.w3.org/2000/svg" viewBox="0 0 24 24" width="24" height="24" color="#111111" fill="none">
    <defs />
    <path fill="#141B34" d="M12.75,2 L12.75,3.282 C16.984,3.641 20.359,7.016 20.718,11.25 L22,11.25 C22.414,11.25 22.75,11.586 22.75,12 C22.75,12.414 22.414,12.75 22,12.75 L20.718,12.75 C20.359,16.984 16.984,20.359 12.75,20.718 L12.75,22 C12.75,22.414 12.414,22.75 12,22.75 C11.586,22.75 11.25,22.414 11.25,22 L11.25,20.718 C7.016,20.359 3.641,16.984 3.282,12.75 L2,12.75 C1.586,12.75 1.25,12.414 1.25,12 C1.25,11.586 1.586,11.25 2,11.25 L3.282,11.25 C3.641,7.016 7.016,3.641 11.25,3.282 L11.25,2 C11.25,1.586 11.586,1.25 12,1.25 C12.414,1.25 12.75,1.586 12.75,2 Z M19.25,12 C19.25,7.996 16.004,4.75 12,4.75 C7.996,4.75 4.75,7.996 4.75,12 C4.75,16.004 7.996,19.25 12,19.25 C16.004,19.25 19.25,16.004 19.25,12 Z" />
</svg>