<svg xmlns="http://www.w3.org/2000/svg" viewBox="0 0 24 24" width="24" height="24" color="#0074d9" fill="none">
    <defs />
    <path fill="#141B34" opacity="0.4" d="M12,8.25 C14.071,8.25 15.75,9.929 15.75,12 C15.75,14.071 14.071,15.75 12,15.75 C9.929,15.75 8.25,14.071 8.25,12 C8.25,9.929 9.929,8.25 12,8.25 Z M19.5,12 C19.5,11.448 19.948,11 20.5,11 L22.5,11 C23.052,11 23.5,11.448 23.5,12 C23.5,12.552 23.052,13 22.5,13 L20.5,13 C19.948,13 19.5,12.552 19.5,12 Z M12,23.5 C11.448,23.5 11,23.052 11,22.5 L11,20.5 C11,19.948 11.448,19.5 12,19.5 C12.552,19.5 13,19.948 13,20.5 L13,22.5 C13,23.052 12.552,23.5 12,23.5 Z M0.5,12 C0.5,11.448 0.948,11 1.5,11 L3.5,11 C4.052,11 4.5,11.448 4.5,12 C4.5,12.552 4.052,13 3.5,13 L1.5,13 C0.948,13 0.5,12.552 0.5,12 Z M11,3.5 L11,1.5 C11,0.948 11.448,0.5 12,0.5 C12.552,0.5 13,0.948 13,1.5 L13,3.5 C13,4.052 12.552,4.5 12,4.5 C11.448,4.5 11,4.052 11,3.5 Z" />
    <path fill="#141B34" d="M2.514,12 C2.514,6.753 6.767,2.5 12.014,2.5 C17.26,2.5 21.514,6.753 21.514,12 C21.514,17.247 17.26,21.5 12.014,21.5 C6.767,21.5 2.514,17.247 2.514,12 Z M12.014,4.5 C7.872,4.5 4.514,7.858 4.514,12 C4.514,16.142 7.872,19.5 12.014,19.5 C16.156,19.5 19.514,16.142 19.514,12 C19.514,7.858 16.156,4.5 12.014,4.5 Z" />
</svg>