<svg xmlns="http://www.w3.org/2000/svg" viewBox="0 0 24 24" width="64" height="64" color="#3d9970" fill="none">
    <defs />
    <path fill="#141B34" d="M13.084,5.274 C13.914,4.758 14.909,4.375 16,4.375 C17.667,4.375 19.115,5.283 20.121,6.54 C21.128,7.798 21.75,9.469 21.75,11.153 C21.75,14.773 21.228,17.441 19.125,20.609 L19.117,20.622 C19.111,20.629 19.106,20.636 19.101,20.643 C18.266,21.762 17.235,22.536 16.039,22.788 C14.833,23.042 13.583,22.739 12.373,21.941 C12.162,21.802 11.838,21.802 11.627,21.941 C10.417,22.739 9.167,23.042 7.961,22.788 C6.765,22.536 5.734,21.762 4.899,20.643 C4.891,20.632 4.883,20.621 4.875,20.609 C2.773,17.441 2.25,14.773 2.25,11.153 C2.25,9.469 2.872,7.798 3.879,6.54 C4.885,5.283 6.333,4.375 8,4.375 C9.15,4.375 10.192,4.8 11.048,5.358 C11.131,4.675 11.33,3.873 11.72,3.15 C12.294,2.086 13.338,1.125 15,1.125 C15.552,1.125 16,1.573 16,2.125 C16,2.677 15.552,3.125 15,3.125 C14.262,3.125 13.806,3.497 13.48,4.1 C13.285,4.462 13.158,4.879 13.084,5.274 Z M8.849,7.596 C8.557,7.128 7.94,6.984 7.471,7.276 C5.948,8.225 5,10.213 5,12.125 C5,12.677 5.448,13.125 6,13.125 C6.552,13.125 7,12.677 7,12.125 C7,10.77 7.697,9.491 8.529,8.974 C8.997,8.682 9.141,8.065 8.849,7.596 Z" />
</svg>