<svg xmlns="http://www.w3.org/2000/svg" viewBox="0 0 24 24" width="64" height="64" color="#3d9970" fill="none">
    <g opacity="0.4">
        <path fill-rule="evenodd" clip-rule="evenodd" d="M20 18H6C4.8954 18 4 18.895 4 20V8C4 5.172 4 3.757 4.8787 2.879C5.7574 2 7.1716 2 10 2H16C17.886 2 18.828 2 19.414 2.586C20 3.172 20 4.114 20 6V18Z" fill="#141B34" />
    </g>
    <path fill-rule="evenodd" clip-rule="evenodd" d="M16 1.25C16.922 1.25 17.689 1.249 18.295 1.33C18.923 1.415 19.489 1.6 19.944 2.056C20.4 2.511 20.585 3.077 20.67 3.705C20.751 4.311 20.75 5.078 20.75 6V18C20.75 18.414 20.414 18.75 20 18.75H19.796C19.739 18.811 19.673 18.886 19.607 18.976C19.416 19.24 19.25 19.589 19.25 20C19.25 20.411 19.416 20.76 19.607 21.024C19.673 21.114 19.739 21.189 19.796 21.25H20C20.414 21.25 20.75 21.586 20.75 22C20.75 22.414 20.414 22.75 20 22.75H6C4.4812 22.75 3.25 21.519 3.25 20V8C3.25 6.607 3.24811 5.487 3.36621 4.608C3.48721 3.708 3.7467 2.951 4.3486 2.349C4.9505 1.747 5.7083 1.487 6.6084 1.366C7.4869 1.248 8.6071 1.25 10 1.25H16ZM6 18.75C5.3096 18.75 4.75 19.31 4.75 20C4.75 20.69 5.3096 21.25 6 21.25H18.019C17.864 20.898 17.75 20.479 17.75 20C17.75 19.521 17.865 19.102 18.02 18.75H6ZM10 2.75C8.5648 2.75 7.5639 2.752 6.8086 2.854C6.0748 2.952 5.6859 3.132 5.4092 3.409C5.1324 3.686 4.9522 4.075 4.8535 4.809C4.752 5.564 4.75 6.565 4.75 8V17.553C5.1253 17.361 5.5494 17.25 6 17.25H19.25V6C19.25 5.036 19.249 4.388 19.184 3.905C19.122 3.444 19.014 3.247 18.884 3.116C18.753 2.986 18.556 2.878 18.095 2.816C17.612 2.751 16.964 2.75 16 2.75H10ZM12.5 10.25C12.914 10.25 13.25 10.586 13.25 11C13.25 11.414 12.914 11.75 12.5 11.75H8.5C8.0858 11.75 7.75 11.414 7.75 11C7.75 10.586 8.0858 10.25 8.5 10.25H12.5ZM15.501 6.25C15.915 6.25 16.251 6.586 16.251 7C16.251 7.414 15.915 7.75 15.501 7.75H8.501C8.0868 7.75 7.751 7.414 7.751 7C7.751 6.586 8.0868 6.25 8.501 6.25H15.501Z" fill="#141B34" />
</svg>