<svg xmlns="http://www.w3.org/2000/svg" viewBox="0 0 24 24" width="64" height="64" color="#3d9970" fill="none">
    <path fill-rule="evenodd" clip-rule="evenodd" d="M15.956 1.25391C16.817 1.25391 17.558 1.25391 18.152 1.33391C18.79 1.41991 19.4 1.61491 19.896 2.11291C20.391 2.61091 20.584 3.22491 20.67 3.86491C20.75 4.46191 20.75 5.20791 20.75 6.07191V17.8669C20.75 18.4069 20.314 18.8449 19.777 18.8449H19.688C19.657 18.8809 19.624 18.9199 19.593 18.9639C19.425 19.1959 19.292 19.4889 19.292 19.8219C19.292 20.1559 19.425 20.4469 19.593 20.6799C19.624 20.7239 19.657 20.7639 19.688 20.7999H19.777C20.314 20.7999 20.75 21.2369 20.75 21.7759C20.75 22.3159 20.314 22.7539 19.777 22.7539H6.16701C4.55601 22.7539 3.25 21.4409 3.25 19.8219V8.03891C3.25 6.70991 3.25 5.61491 3.366 4.74791C3.487 3.84091 3.752 3.04091 4.39 2.39991C5.027 1.75791 5.824 1.4919 6.726 1.3699C7.588 1.2539 8.678 1.25391 10 1.25391H15.956ZM6.16701 18.8439C5.63001 18.8439 5.194 19.2819 5.194 19.8209C5.194 20.3609 5.63001 20.7979 6.16701 20.7979H17.5C17.408 20.5069 17.348 20.1799 17.348 19.8209C17.348 19.4619 17.408 19.1349 17.5 18.8439H6.16701ZM8.498 10.0039C7.946 10.0039 7.498 10.4519 7.498 11.0039C7.498 11.5559 7.946 12.0039 8.498 12.0039H12.498C13.05 12.0039 13.498 11.5559 13.498 11.0039C13.498 10.4519 13.05 10.0039 12.498 10.0039H8.498ZM8.49899 6.00391C7.94699 6.00391 7.49899 6.45191 7.49899 7.00391C7.49899 7.55591 7.94699 8.00391 8.49899 8.00391H15.499C16.051 8.00391 16.499 7.55591 16.499 7.00391C16.499 6.45191 16.051 6.00391 15.499 6.00391H8.49899Z" fill="#141B34" />
</svg>