<svg xmlns="http://www.w3.org/2000/svg" viewBox="0 0 24 24" width="64" height="64" color="#ffffff" fill="none">
    <defs />
    <path fill="#141B34" d="M9.561,2.502 C10.09,3.097 11.005,3.446 12,3.446 C12.995,3.446 13.91,3.097 14.439,2.502 C14.665,2.248 15.032,2.178 15.335,2.329 L19.798,4.561 C20.988,5.156 21.774,6.337 21.863,7.665 L22.748,20.95 C22.762,21.157 22.69,21.361 22.548,21.512 C22.406,21.664 22.208,21.75 22,21.75 L19,21.75 C18.669,21.75 18.377,21.533 18.282,21.215 L17.699,19.273 C17.69,19.294 17.681,19.315 17.671,19.336 L16.671,21.336 C16.544,21.59 16.284,21.75 16,21.75 L8,21.75 C7.716,21.75 7.456,21.59 7.329,21.336 L6.329,19.336 C6.319,19.315 6.31,19.294 6.301,19.272 L5.718,21.215 C5.623,21.533 5.331,21.75 5,21.75 L2,21.75 C1.792,21.75 1.594,21.664 1.452,21.512 C1.311,21.361 1.238,21.157 1.252,20.95 L2.137,7.665 C2.226,6.337 3.012,5.156 4.202,4.561 L8.665,2.329 C8.968,2.178 9.335,2.248 9.561,2.502 Z M18.099,15.548 C18.151,15.617 18.192,15.697 18.218,15.785 L19.558,20.25 L21.198,20.25 L20.366,7.765 C20.313,6.968 19.841,6.259 19.127,5.902 L15.136,3.906 C14.266,4.621 13.104,4.946 12,4.946 C10.896,4.946 9.734,4.621 8.864,3.906 L4.873,5.902 C4.159,6.259 3.687,6.968 3.634,7.765 L2.802,20.25 L4.442,20.25 L5.782,15.785 C5.808,15.697 5.849,15.617 5.901,15.548 L5.254,9.075 C5.213,8.663 5.513,8.295 5.925,8.254 C6.338,8.213 6.705,8.513 6.746,8.925 L7.733,18.788 L8.464,20.25 L15.536,20.25 L16.267,18.788 L17.254,8.925 C17.295,8.513 17.663,8.213 18.075,8.254 C18.487,8.295 18.788,8.663 18.746,9.075 Z" />
    <path fill="#141B34" opacity="0.4" d="M9.25,3.499 L9.25,3.502 L9.25,3.526 C9.251,3.548 9.252,3.584 9.255,3.631 C9.259,3.726 9.269,3.867 9.289,4.042 C9.329,4.393 9.409,4.872 9.566,5.386 C9.887,6.43 10.492,7.508 11.623,8.057 C11.727,8.107 11.829,8.168 11.927,8.238 C13.263,7.802 13.971,6.722 14.355,5.627 C14.551,5.066 14.651,4.527 14.701,4.126 C14.726,3.926 14.738,3.764 14.744,3.654 C14.747,3.599 14.749,3.558 14.749,3.531 L14.75,3.499 C14.751,3.085 15.086,2.75 15.5,2.75 C15.914,2.75 16.25,3.086 16.25,3.5 L16.25,3.504 C16.25,3.519 16.249,3.552 16.249,3.57 C16.248,3.61 16.246,3.666 16.242,3.736 C16.234,3.876 16.219,4.074 16.19,4.312 C16.13,4.786 16.011,5.434 15.77,6.123 C15.334,7.37 14.46,8.838 12.737,9.538 C12.745,9.609 12.75,9.681 12.75,9.754 L12.75,21 C12.75,21.414 12.414,21.75 12,21.75 C11.586,21.75 11.25,21.414 11.25,21 L11.25,9.754 C11.25,9.666 11.181,9.51 10.967,9.406 C9.303,8.597 8.511,7.059 8.132,5.826 C7.941,5.202 7.846,4.629 7.798,4.211 C7.775,4.002 7.763,3.829 7.756,3.707 C7.754,3.649 7.751,3.549 7.75,3.507 L7.75,3.5 C7.75,3.086 8.086,2.75 8.5,2.75 C8.914,2.75 9.249,3.085 9.25,3.499 Z" />
</svg>