<svg xmlns="http://www.w3.org/2000/svg" viewBox="0 0 24 24" width="64" height="64" color="#ffffff" fill="none">
    <defs />
    <path fill="#141B34" d="M7.356,2.876 C7.549,2.779 7.778,2.912 7.792,3.127 C7.799,3.228 7.804,3.308 7.809,3.347 C7.866,3.911 7.982,4.682 8.217,5.492 C8.62,6.88 9.429,8.57 11.071,9.374 C11.179,9.427 11.25,9.534 11.25,9.653 L11.25,21.449 C11.25,21.614 11.116,21.749 10.95,21.749 L8,21.749 C7.716,21.749 7.456,21.587 7.329,21.332 L6.329,19.32 C6.319,19.3 6.288,19.302 6.281,19.323 L5.718,21.211 C5.623,21.53 5.331,21.749 5,21.749 L2,21.749 C1.792,21.749 1.594,21.662 1.452,21.51 C1.311,21.357 1.238,21.153 1.252,20.944 L2.137,7.584 C2.226,6.249 3.012,5.061 4.202,4.462 Z M13.05,21.749 C12.884,21.749 12.75,21.614 12.75,21.448 L12.75,9.653 C12.75,9.534 12.821,9.426 12.929,9.374 C14.571,8.569 15.38,6.879 15.783,5.492 C16.018,4.681 16.134,3.911 16.191,3.347 C16.197,3.297 16.203,3.22 16.209,3.129 C16.224,2.913 16.453,2.78 16.646,2.877 L19.798,4.462 C20.988,5.06 21.774,6.249 21.863,7.584 L22.748,20.944 C22.762,21.152 22.69,21.357 22.548,21.51 C22.406,21.662 22.208,21.749 22,21.749 L19,21.749 C18.669,21.749 18.377,21.53 18.282,21.211 L17.719,19.323 C17.712,19.302 17.681,19.3 17.671,19.32 L16.671,21.332 C16.544,21.587 16.284,21.749 16,21.749 Z" />
    <path fill="#141B34" opacity="0.4" d="M14.75,2.39 C14.75,2.295 14.662,2.214 14.583,2.267 C14.531,2.302 14.483,2.344 14.439,2.393 C13.911,2.991 12.995,3.342 12,3.342 C11.005,3.342 10.089,2.991 9.561,2.393 C9.517,2.344 9.469,2.302 9.417,2.267 C9.338,2.214 9.25,2.295 9.25,2.39 C9.265,2.643 9.297,3.159 9.301,3.193 C9.352,3.698 9.455,4.373 9.658,5.071 C10.042,6.398 10.723,7.606 11.896,8.094 C11.963,8.121 12.037,8.121 12.104,8.094 C13.277,7.606 13.958,6.398 14.342,5.071 C14.545,4.373 14.648,3.698 14.699,3.193 C14.713,3.07 14.739,2.606 14.75,2.39 Z" />
</svg>