<svg xmlns="http://www.w3.org/2000/svg" viewBox="0 0 24 24" width="64" height="64" color="#3d9970" fill="none">
    <defs />
    <path fill="#141B34" opacity="0.4" d="M7,5 C7,3.778 7,2.768 7.381,2.388 C7.762,2.008 8.374,2.008 9.6,2.008 L15.153,2.008 C15.243,2.008 15.336,2.006 15.431,2.004 C16.085,1.991 16.836,1.977 17.249,2.539 C17.545,2.942 17.517,3.435 17.489,3.926 L17.489,3.927 C17.469,4.268 17.45,4.608 17.539,4.918 C17.598,5.125 17.737,5.29 17.875,5.453 L17.918,5.505 L20,8 L9.82,8 C9.83,8.021 9.839,8.042 9.848,8.063 C10,8.431 10,8.839 10,9.657 L10,13 L13,13 L15,15 L17,15 L20,16.5 L20,18 C20,19.886 20,20.828 19.414,21.414 C18.828,22 17.886,22 16,22 L8,22 C6.114,22 5.172,22 4.586,21.414 C4,20.828 4,19.886 4,18 L4,9.657 C4,8.839 4,8.431 4.152,8.063 C4.304,7.696 4.594,7.406 5.172,6.828 Z" />
    <path fill="#141B34" d="M20.579,7.515 C20.708,7.669 20.764,7.86 20.752,8.046 L20.752,17.998 C20.752,20.025 20.752,21.141 19.944,21.941 C19.143,22.748 18.027,22.748 16.002,22.748 L10.751,22.748 L10.751,22.749 L8.002,22.749 C5.977,22.749 4.862,22.749 4.056,21.937 C3.252,21.14 3.252,20.024 3.252,17.999 L3.252,9.659 C3.252,8.77 3.252,8.281 3.46,7.774 C3.671,7.275 4.013,6.931 4.634,6.308 L6.252,4.687 L6.252,4.598 C6.252,3.263 6.252,2.457 6.853,1.857 C7.453,1.258 8.262,1.258 9.601,1.258 L15.155,1.258 C15.24,1.258 15.328,1.256 15.419,1.254 L15.428,1.254 L15.429,1.254 C16.142,1.239 17.218,1.217 17.858,2.097 C18.31,2.711 18.271,3.403 18.24,3.961 L18.24,3.965 L18.239,3.977 C18.224,4.258 18.209,4.525 18.263,4.711 C18.279,4.767 18.377,4.884 18.457,4.978 Z M5.698,7.366 C5.173,7.893 4.936,8.135 4.846,8.35 C4.757,8.567 4.753,8.889 4.753,9.658 L4.753,17.998 C4.753,19.743 4.768,20.529 5.117,20.875 C5.473,21.233 6.259,21.248 8.003,21.248 L9.253,21.248 L9.253,9.658 C9.253,8.888 9.249,8.567 9.157,8.343 C9.069,8.135 8.833,7.893 8.308,7.366 L8.3,7.357 L7.003,6.059 L5.706,7.357 Z M16.002,21.248 C17.747,21.248 18.533,21.233 18.884,20.879 C19.237,20.529 19.252,19.743 19.252,17.998 L19.252,17.527 C18.858,17.32 18.342,16.925 17.75,16.173 C17.583,15.958 17.378,15.851 17.198,15.885 L16.333,16.055 C15.466,16.216 14.58,15.861 14.012,15.127 L13.319,14.21 C13.169,14.014 12.931,13.936 12.685,14.002 C12.175,14.139 11.433,14.219 10.751,14.112 L10.751,21.248 Z M19.252,15.624 L19.252,8.748 L10.737,8.748 C10.751,9.005 10.751,9.299 10.751,9.658 L10.751,12.582 C11.087,12.679 11.733,12.706 12.295,12.554 C13.124,12.33 13.995,12.625 14.514,13.304 L15.204,14.216 C15.424,14.499 15.742,14.639 16.052,14.582 L16.916,14.412 C17.665,14.27 18.417,14.585 18.932,15.248 C19.046,15.393 19.153,15.518 19.252,15.624 Z M18.397,7.248 L17.307,5.944 L17.306,5.943 C17.145,5.751 16.925,5.488 16.82,5.125 C16.696,4.691 16.72,4.26 16.742,3.881 C16.767,3.437 16.773,3.155 16.647,2.983 C16.477,2.75 16.048,2.741 15.46,2.754 L15.456,2.754 C15.354,2.756 15.252,2.758 15.155,2.758 L9.601,2.758 C8.714,2.758 8.074,2.758 7.913,2.919 C7.752,3.079 7.752,3.716 7.752,4.598 L7.752,4.689 L9.369,6.308 C9.755,6.695 10.033,6.974 10.238,7.248 Z" />
</svg>