<svg xmlns="http://www.w3.org/2000/svg" viewBox="0 0 24 24" width="64" height="64" color="#3d9970" fill="none">
    <defs />
    <path fill="#141B34" d="M18.686,4.865 L20.767,7.359 L20.983,7.818 C20.994,7.877 21,7.938 21,8 L21,18.066 C21,18.952 21,19.716 20.918,20.328 C20.83,20.983 20.631,21.612 20.121,22.121 C19.612,22.631 18.983,22.83 18.328,22.918 C17.716,23 16.952,23 16.066,23 L11,23 L11,23 L7.934,23 C7.048,23 6.284,23 5.672,22.918 C5.017,22.83 4.389,22.631 3.879,22.122 C3.369,21.612 3.171,20.983 3.082,20.328 C3,19.716 3,18.952 3,18.066 C3,17.127 3.001,16.187 3.001,15.248 C3.002,13.338 3.003,11.428 3,9.518 L3,9.518 C2.999,8.839 2.998,8.237 3.229,7.681 C3.459,7.124 3.886,6.699 4.366,6.22 L4.465,6.121 L6,4.586 L6,4.545 L6,4.545 C6,3.984 6,3.467 6.057,3.046 C6.119,2.582 6.267,2.087 6.674,1.68 C7.081,1.274 7.576,1.126 8.04,1.064 C8.462,1.007 8.979,1.007 9.541,1.008 L15.153,1.008 C15.207,1.008 15.273,1.006 15.349,1.005 C15.635,0.999 16.057,0.99 16.427,1.041 C16.941,1.113 17.595,1.32 18.055,1.947 C18.526,2.589 18.518,3.309 18.5,3.743 C18.497,3.799 18.494,3.854 18.49,3.91 L18.49,3.91 C18.469,4.25 18.449,4.58 18.686,4.865 Z M7,6.539 C6.876,6.539 6.776,6.639 6.576,6.839 L5.879,7.536 C5.243,8.171 5.135,8.305 5.076,8.446 C5.018,8.587 5,8.758 5,9.657 L5,18 C5,18.971 5.002,19.599 5.065,20.061 C5.123,20.495 5.217,20.631 5.293,20.707 C5.369,20.783 5.505,20.878 5.939,20.936 C6.401,20.998 7.029,21 8,21 L9,21 L9,9.657 C9,8.758 8.983,8.587 8.924,8.446 C8.866,8.305 8.757,8.171 8.122,7.536 L7.425,6.839 C7.225,6.639 7.125,6.539 7,6.539 Z M10.998,12.632 C11.057,12.641 11.122,12.648 11.194,12.653 C11.582,12.679 12.002,12.632 12.295,12.554 C13.088,12.344 13.965,12.592 14.512,13.309 L15.199,14.211 C15.44,14.528 15.764,14.635 16.045,14.581 L16.915,14.413 C17.739,14.255 18.476,14.669 18.927,15.243 C18.951,15.274 18.976,15.305 19,15.334 L19,9.4 C19,9.211 19,9.117 18.941,9.059 C18.883,9 18.789,9 18.6,9 L10.997,9 C11.001,9.167 11.001,9.34 11,9.517 L11,9.518 L11,9.518 C10.999,10.556 10.998,11.594 10.998,12.632 Z" />
</svg>