<svg xmlns="http://www.w3.org/2000/svg" viewBox="0 0 24 24" width="64" height="64" color="#3d9970" fill="none">
    <defs />
    <path fill="#141B34" d="M7.329,5.308 C7.322,5.223 7.249,5.124 7.103,4.925 C6.812,4.53 6.636,4.044 6.636,3.5 C6.636,2.039 7.9,1 9.273,1 L14.727,1 C16.1,1 17.364,2.039 17.364,3.5 C17.364,4.052 17.183,4.544 16.884,4.943 C16.734,5.143 16.659,5.243 16.652,5.329 C16.645,5.414 16.692,5.507 16.788,5.694 C18.086,8.218 19,10.631 19,13.777 L19,18 C19,19.622 18.846,21.063 17.848,21.978 C17.348,22.437 16.722,22.683 16.039,22.821 C15.362,22.957 14.559,23 13.636,23 L10.364,23 C9.441,23 8.638,22.957 7.961,22.821 C7.278,22.683 6.652,22.437 6.152,21.978 C5.154,21.063 5,19.622 5,18 L5,13.777 C5,10.627 5.896,8.207 7.195,5.67 C7.289,5.486 7.336,5.393 7.329,5.308 Z M15.364,3.5 C15.364,3.304 15.162,3 14.727,3 L9.273,3 C8.838,3 8.636,3.304 8.636,3.5 C8.636,3.647 8.75,3.855 8.99,3.95 C8.997,3.951 9.003,3.953 9.01,3.955 C9.09,3.977 9.173,4 9.273,4 C9.825,4 10.273,4.448 10.273,5 C10.273,5.469 9.95,5.862 9.515,5.97 C9.375,6.005 9.306,6.023 9.272,6.049 C9.238,6.076 9.214,6.121 9.167,6.212 C8.182,8.088 7.476,9.753 7.169,11.631 C7.267,11.642 7.375,11.651 7.491,11.656 C7.966,11.675 8.465,11.625 8.823,11.546 C9.658,11.362 10.618,11.564 11.252,12.257 L12.076,13.159 C12.376,13.487 12.841,13.651 13.306,13.576 L14.349,13.409 C15.201,13.272 16.013,13.62 16.55,14.191 C16.712,14.363 16.862,14.506 17,14.627 L17,13.777 C17,10.929 16.152,8.772 14.798,6.203 C14.752,6.115 14.729,6.072 14.697,6.046 C14.664,6.02 14.597,6.001 14.463,5.965 C14.039,5.849 13.727,5.461 13.727,5 C13.727,4.448 14.175,4 14.727,4 C14.821,4 14.899,3.98 14.976,3.96 C14.983,3.958 14.991,3.956 14.999,3.954 C15.247,3.861 15.364,3.649 15.364,3.5 Z" />
</svg>