<svg xmlns="http://www.w3.org/2000/svg" viewBox="0 0 24 24" width="64" height="64" color="#3d9970" fill="none">
    <defs />
    <path fill="#141B34" opacity="0.4" d="M10.364,22 L13.636,22 C17.247,22 18,21.309 18,18 L18,15.889 L15,14 L12.5,14.5 L9.5,12 L8,12.5 L6.107,12 C6.037,12.568 6,13.157 6,13.777 L6,18 C6,21.309 6.753,22 10.364,22 Z" />
    <path fill="#141B34" d="M6.886,3.5 C6.886,2.197 8.018,1.25 9.273,1.25 L14.727,1.25 C15.983,1.25 17.114,2.197 17.114,3.5 C17.114,4.214 16.774,4.821 16.26,5.224 C17.712,7.954 18.75,10.448 18.75,13.777 L18.75,18 C18.75,19.63 18.588,20.961 17.679,21.794 C17.224,22.211 16.647,22.443 15.989,22.576 C15.337,22.707 14.554,22.75 13.636,22.75 L10.364,22.75 C9.446,22.75 8.663,22.707 8.011,22.576 C7.353,22.443 6.776,22.211 6.321,21.794 C5.412,20.961 5.25,19.63 5.25,18 L5.25,13.777 C5.25,10.447 6.265,7.946 7.718,5.207 C7.217,4.804 6.886,4.204 6.886,3.5 Z M15.614,3.5 C15.614,3.146 15.28,2.75 14.727,2.75 L9.273,2.75 C8.72,2.75 8.386,3.146 8.386,3.5 C8.386,3.77 8.581,4.065 8.919,4.189 C8.944,4.196 8.968,4.204 8.992,4.213 C9.078,4.237 9.172,4.25 9.273,4.25 C9.687,4.25 10.023,4.586 10.023,5 C10.023,5.414 9.687,5.75 9.273,5.75 C9.225,5.75 9.178,5.749 9.131,5.746 C8.044,7.779 7.254,9.559 6.922,11.592 C7.066,11.622 7.232,11.642 7.414,11.652 C7.909,11.68 8.444,11.63 8.822,11.547 C9.657,11.362 10.618,11.565 11.252,12.258 L12.076,13.16 C12.376,13.488 12.84,13.651 13.306,13.577 L14.349,13.409 C15.201,13.273 16.012,13.62 16.55,14.191 C16.815,14.473 17.05,14.68 17.25,14.832 L17.25,13.777 C17.25,10.743 16.303,8.48 14.839,5.747 C14.802,5.749 14.765,5.75 14.727,5.75 C14.313,5.75 13.977,5.414 13.977,5 C13.977,4.586 14.313,4.25 14.727,4.25 C14.823,4.25 14.911,4.238 14.993,4.217 C15.017,4.208 15.041,4.201 15.065,4.195 C15.413,4.074 15.614,3.775 15.614,3.5 Z M17.25,16.566 C17.215,16.551 17.179,16.535 17.142,16.518 C16.696,16.31 16.122,15.925 15.458,15.22 C15.214,14.96 14.883,14.843 14.587,14.89 L13.543,15.058 C12.592,15.21 11.618,14.882 10.969,14.172 L10.145,13.27 C9.935,13.041 9.555,12.921 9.146,13.011 C8.632,13.125 7.96,13.185 7.329,13.15 C7.143,13.139 6.953,13.12 6.766,13.089 C6.755,13.314 6.75,13.543 6.75,13.777 L6.75,18 C6.75,19.679 6.964,20.349 7.335,20.688 C7.519,20.857 7.808,21.005 8.307,21.105 C8.811,21.207 9.476,21.25 10.364,21.25 L13.636,21.25 C14.524,21.25 15.189,21.207 15.693,21.105 C16.192,21.005 16.481,20.857 16.665,20.688 C17.036,20.349 17.25,19.679 17.25,18 Z" />
</svg>