<svg xmlns="http://www.w3.org/2000/svg" viewBox="0 0 24 24" width="64" height="64" color="#3d9970" fill="none">
    <defs />
    <path fill="#141B34" d="M12,1.25 C14.252,1.25 16.316,1.477 17.839,1.858 C18.594,2.047 19.259,2.284 19.753,2.576 C20.197,2.838 20.75,3.295 20.75,4 C20.75,4.705 20.197,5.162 19.753,5.424 C19.259,5.716 18.594,5.953 17.839,6.142 C16.316,6.523 14.252,6.75 12,6.75 C9.748,6.75 7.684,6.523 6.161,6.142 C5.406,5.953 4.741,5.716 4.247,5.424 C3.803,5.162 3.25,4.705 3.25,4 C3.25,3.295 3.803,2.838 4.247,2.576 C4.741,2.284 5.406,2.047 6.161,1.858 C7.684,1.477 9.748,1.25 12,1.25 Z M13.5,12.5 C13.5,13.328 12.828,14 12,14 C11.172,14 10.5,13.328 10.5,12.5 C10.5,11.5 12,10 12,10 C12,10 13.5,11.5 13.5,12.5 Z" />
    <path fill="#141B34" opacity="0.4" d="M4.25,10.168 L4.25,7.094 C4.74,7.299 5.269,7.463 5.797,7.595 C7.47,8.013 9.662,8.248 12,8.248 C14.338,8.248 16.53,8.013 18.203,7.595 C18.731,7.463 19.26,7.299 19.75,7.094 L19.75,10.168 C20.315,10.631 20.75,11.241 20.75,11.997 C20.75,12.703 20.366,13.286 19.869,13.726 C19.371,14.168 18.693,14.531 17.92,14.821 C16.369,15.403 14.275,15.747 12,15.747 C9.725,15.747 7.631,15.403 6.08,14.821 C5.307,14.531 4.629,14.168 4.131,13.726 C3.634,13.286 3.25,12.703 3.25,11.997 C3.25,11.241 3.685,10.631 4.25,10.168 Z M4.25,17.167 L4.25,15.627 C4.667,15.861 5.109,16.058 5.553,16.224 C7.313,16.884 9.592,17.246 12,17.246 C14.408,17.246 16.687,16.884 18.447,16.224 C18.891,16.058 19.333,15.861 19.75,15.627 L19.75,17.167 C20.315,17.63 20.75,18.241 20.75,18.997 C20.75,19.703 20.366,20.285 19.869,20.726 C19.371,21.167 18.693,21.531 17.92,21.821 C16.369,22.402 14.275,22.747 12,22.747 C9.725,22.747 7.631,22.402 6.08,21.821 C5.307,21.531 4.629,21.167 4.131,20.726 C3.634,20.285 3.25,19.703 3.25,18.997 C3.25,18.241 3.685,17.63 4.25,17.167 Z" />
</svg>