<svg xmlns="http://www.w3.org/2000/svg" viewBox="0 0 24 24" width="64" height="64" color="#3d9970" fill="none">
    <defs />
    <path fill="#141B34" opacity="0.4" d="M18.93,13.5 L19,13.5 L19,17.546 C19.637,17.977 20,18.473 20,19 C20,20.657 16.418,22 12,22 C7.582,22 4,20.657 4,19 C4,18.473 4.363,17.977 5,17.546 L5,13.5 L5.07,13.5 C6.454,14.397 9.039,15 12,15 C14.961,15 17.546,14.397 18.93,13.5 Z M20,4 C20,5.105 16.418,6 12,6 C7.582,6 4,5.105 4,4 C4,2.895 7.582,2 12,2 C16.418,2 20,2.895 20,4 Z M13.5,11 C13.5,11.828 12.828,12.5 12,12.5 C11.172,12.5 10.5,11.828 10.5,11 C10.5,10 12,8.5 12,8.5 C12,8.5 13.5,10 13.5,11 Z" />
    <path fill="#141B34" d="M12,1.25 C14.252,1.25 16.316,1.477 17.839,1.858 C18.594,2.047 19.259,2.284 19.753,2.576 C20.197,2.838 20.75,3.295 20.75,4 C20.75,4.705 20.197,5.162 19.753,5.424 L19.75,5.426 L19.75,10.17 C20.315,10.633 20.75,11.244 20.75,12 C20.75,12.706 20.366,13.288 19.869,13.729 C19.83,13.763 19.791,13.797 19.75,13.83 L19.75,17.17 C20.315,17.633 20.75,18.244 20.75,19 C20.75,19.706 20.366,20.288 19.869,20.729 C19.371,21.17 18.693,21.534 17.92,21.824 C16.368,22.405 14.275,22.75 12,22.75 C9.725,22.75 7.631,22.405 6.08,21.824 C5.307,21.534 4.629,21.17 4.131,20.729 C3.634,20.288 3.25,19.706 3.25,19 C3.25,18.244 3.685,17.633 4.25,17.17 L4.25,13.83 C4.209,13.797 4.17,13.763 4.131,13.729 C3.634,13.288 3.25,12.706 3.25,12 C3.25,11.244 3.685,10.633 4.25,10.17 L4.25,5.426 L4.247,5.424 C3.803,5.162 3.25,4.705 3.25,4 C3.25,3.295 3.803,2.838 4.247,2.576 C4.741,2.284 5.406,2.047 6.161,1.858 C7.684,1.477 9.748,1.25 12,1.25 Z M5.75,10.547 C5.75,10.796 5.626,11.028 5.42,11.168 C4.862,11.545 4.75,11.844 4.75,12 C4.75,12.123 4.814,12.329 5.126,12.606 C5.438,12.883 5.932,13.166 6.606,13.419 C7.95,13.923 9.857,14.25 12,14.25 C14.143,14.25 16.05,13.923 17.393,13.419 C18.068,13.166 18.562,12.883 18.874,12.606 C19.186,12.329 19.25,12.123 19.25,12 C19.25,11.844 19.138,11.545 18.58,11.168 C18.374,11.028 18.25,10.796 18.25,10.547 L18.25,6.032 C18.116,6.07 17.979,6.107 17.839,6.142 C16.316,6.523 14.252,6.75 12,6.75 C9.748,6.75 7.684,6.523 6.161,6.142 C6.021,6.107 5.884,6.07 5.75,6.032 Z M18.25,14.693 C18.142,14.738 18.032,14.782 17.92,14.824 C16.368,15.405 14.275,15.75 12,15.75 C9.725,15.75 7.631,15.405 6.08,14.824 C5.968,14.782 5.858,14.738 5.75,14.693 L5.75,17.546 C5.75,17.796 5.626,18.028 5.42,18.168 C4.862,18.545 4.75,18.844 4.75,19 C4.75,19.123 4.814,19.329 5.126,19.607 C5.438,19.883 5.932,20.166 6.606,20.419 C7.95,20.923 9.857,21.25 12,21.25 C14.143,21.25 16.05,20.923 17.393,20.419 C18.068,20.166 18.562,19.883 18.874,19.607 C19.186,19.329 19.25,19.123 19.25,19 C19.25,18.844 19.138,18.545 18.58,18.168 C18.374,18.028 18.25,17.796 18.25,17.546 Z M5.01,4.133 C5.326,4.319 5.833,4.514 6.525,4.687 C7.898,5.03 9.834,5.25 12,5.25 C14.166,5.25 16.102,5.03 17.475,4.687 C18.167,4.514 18.674,4.319 18.99,4.133 C19.081,4.079 19.142,4.034 19.184,4 C19.142,3.966 19.081,3.921 18.99,3.867 C18.674,3.681 18.167,3.486 17.475,3.313 C16.102,2.97 14.166,2.75 12,2.75 C9.834,2.75 7.898,2.97 6.525,3.313 C5.833,3.486 5.326,3.681 5.01,3.867 C4.919,3.921 4.858,3.966 4.816,4 C4.858,4.034 4.919,4.079 5.01,4.133 Z M11.47,7.97 C11.763,7.677 12.237,7.677 12.53,7.97 L12.531,7.971 L12.533,7.972 L12.538,7.977 L12.553,7.993 C12.566,8.006 12.584,8.025 12.607,8.049 C12.652,8.096 12.716,8.164 12.792,8.248 C12.943,8.416 13.145,8.652 13.35,8.925 C13.553,9.195 13.769,9.516 13.936,9.852 C14.098,10.176 14.25,10.58 14.25,11 C14.25,12.243 13.243,13.25 12,13.25 C10.757,13.25 9.75,12.243 9.75,11 C9.75,10.58 9.902,10.176 10.064,9.852 C10.231,9.516 10.447,9.195 10.65,8.925 C10.855,8.652 11.057,8.416 11.208,8.248 C11.284,8.164 11.348,8.096 11.393,8.049 C11.416,8.025 11.434,8.006 11.447,7.993 L11.462,7.977 L11.467,7.972 L11.469,7.971 Z M11.85,9.825 C11.678,10.055 11.519,10.296 11.405,10.523 C11.286,10.762 11.25,10.92 11.25,11 C11.25,11.414 11.586,11.75 12,11.75 C12.414,11.75 12.75,11.414 12.75,11 C12.75,10.92 12.714,10.762 12.595,10.523 C12.481,10.296 12.322,10.055 12.15,9.825 C12.1,9.758 12.049,9.693 12,9.632 C11.951,9.693 11.9,9.758 11.85,9.825 Z" />
</svg>