<svg xmlns="http://www.w3.org/2000/svg" viewBox="0 0 24 24" width="64" height="64" color="#3d9970" fill="none">
    <defs />
    <path fill="#141B34" opacity="0.4" d="M5.25,5 L5.855,15.536 C6.009,18.107 6.087,19.392 6.729,20.317 C7.046,20.774 7.455,21.159 7.929,21.449 C8.511,21.805 9.213,21.945 10.25,22 L13.294,22 C14.427,22 15.312,22 16.022,21.935 C15.918,21.916 15.815,21.892 15.712,21.865 C14.645,21.579 13.795,20.887 13.283,20.001 C12.587,18.795 12.731,17.356 12.883,16.966 C13.455,14.832 15.649,13.566 17.782,14.137 C18.41,14.305 18.962,14.614 19.415,15.019 L19.75,11.5 L20.25,5 L5.25,5 Z" />
    <path fill="#141B34" d="M20.417,3.13 L20.791,4.25 L21.75,4.25 C22.164,4.25 22.5,4.586 22.5,5 C22.5,5.414 22.164,5.75 21.75,5.75 L20.944,5.75 L20.498,11.557 C20.466,11.97 20.105,12.28 19.692,12.248 C19.279,12.216 18.97,11.856 19.002,11.443 L19.44,5.75 L6.044,5.75 L6.603,15.491 L6.603,15.492 C6.682,16.792 6.738,17.713 6.85,18.428 C6.96,19.13 7.115,19.557 7.345,19.889 C7.603,20.26 7.935,20.574 8.32,20.809 C8.739,21.066 9.287,21.198 10.29,21.251 C10.703,21.273 11.021,21.626 10.999,22.04 C10.977,22.453 10.624,22.771 10.21,22.749 C9.14,22.692 8.283,22.545 7.538,22.089 C6.975,21.745 6.489,21.287 6.113,20.744 C5.701,20.152 5.496,19.474 5.368,18.66 C5.244,17.866 5.184,16.873 5.108,15.62 L5.106,15.581 L5.106,15.579 L4.542,5.75 L3.75,5.75 C3.336,5.75 3,5.414 3,5 C3,4.586 3.336,4.25 3.75,4.25 L9.18,4.25 C9.598,4.25 9.988,4.041 10.22,3.693 L11.032,2.475 C11.542,1.71 12.401,1.25 13.32,1.25 L17.809,1.25 C18.992,1.25 20.043,2.007 20.417,3.13 Z M17.979,13.413 C19.276,13.761 20.304,14.614 20.906,15.702 C21.107,16.064 20.976,16.52 20.613,16.721 C20.251,16.921 19.794,16.79 19.594,16.428 C19.181,15.682 18.479,15.1 17.591,14.862 C15.857,14.397 14.075,15.426 13.611,17.16 C13.537,17.435 13.314,17.645 13.034,17.701 C12.755,17.757 12.468,17.651 12.293,17.425 L11.157,15.96 C10.903,15.632 10.963,15.161 11.29,14.907 C11.618,14.654 12.089,14.713 12.343,15.041 L12.705,15.508 C13.778,13.767 15.902,12.856 17.979,13.413 Z M19.889,18.842 C19.963,18.567 20.186,18.358 20.465,18.301 C20.744,18.245 21.031,18.352 21.206,18.576 L22.342,20.04 C22.596,20.368 22.537,20.839 22.21,21.093 C21.883,21.347 21.412,21.287 21.157,20.96 L20.795,20.493 C19.723,22.236 17.598,23.146 15.521,22.589 C14.254,22.25 13.243,21.428 12.636,20.376 C12.429,20.017 12.552,19.559 12.911,19.352 C13.269,19.145 13.728,19.267 13.935,19.626 C14.352,20.347 15.042,20.908 15.909,21.14 C17.642,21.605 19.425,20.576 19.889,18.842 Z M12.28,3.307 L11.651,4.25 L19.209,4.25 L18.994,3.605 C18.824,3.094 18.347,2.75 17.809,2.75 L13.32,2.75 C12.902,2.75 12.512,2.959 12.28,3.307 Z" />
</svg>