<svg xmlns="http://www.w3.org/2000/svg" viewBox="0 0 24 24" width="64" height="64" color="#3d9970" fill="none">
    <defs />
    <path fill="#141B34" d="M20.971,4.25 L21.75,4.25 C22.302,4.25 22.75,4.698 22.75,5.25 C22.75,5.802 22.302,6.25 21.75,6.25 L20.952,6.25 C20.913,6.907 20.875,7.564 20.838,8.222 C20.764,9.544 20.689,10.866 20.593,12.187 C20.562,12.607 20.547,12.818 20.417,12.898 C20.287,12.979 20.075,12.892 19.651,12.718 L19.651,12.718 C19.392,12.612 19.123,12.522 18.846,12.45 C17.042,11.983 15.191,12.353 13.752,13.338 C13.556,13.472 13.458,13.54 13.38,13.562 C13.302,13.584 13.156,13.578 12.863,13.564 C12.277,13.538 11.678,13.715 11.183,14.107 C10.098,14.968 9.92,16.541 10.785,17.621 L11.814,18.903 C11.945,19.067 12.011,19.149 12.032,19.186 C12.103,19.315 12.104,19.321 12.093,19.468 C12.09,19.51 12.064,19.613 12.012,19.82 C11.869,20.391 11.948,20.973 12.195,21.497 L12.195,21.498 C12.373,21.874 12.462,22.063 12.402,22.156 C12.343,22.249 12.159,22.247 11.793,22.244 L11.792,22.244 C10.934,22.236 10.111,22.218 9.665,22.178 C8.851,22.105 8.169,21.951 7.557,21.6 C6.995,21.277 6.508,20.846 6.128,20.332 C5.709,19.765 5.5,19.117 5.371,18.344 C5.246,17.595 5.186,16.658 5.111,15.485 L5.108,15.445 L5.108,15.442 L4.547,6.25 L3.75,6.25 C3.198,6.25 2.75,5.802 2.75,5.25 C2.75,4.698 3.198,4.25 3.75,4.25 L9.18,4.25 C9.514,4.25 9.826,4.083 10.012,3.805 L10.824,2.586 C11.381,1.751 12.317,1.25 13.32,1.25 L17.809,1.25 C19.1,1.25 20.246,2.076 20.654,3.301 Z M20.526,18.176 C20.894,18.1 21.274,18.237 21.509,18.531 L22.531,19.812 C22.876,20.243 22.806,20.872 22.374,21.217 C21.942,21.562 21.313,21.491 20.969,21.06 L20.907,20.982 C19.805,22.393 17.906,23.076 16.066,22.597 C15.087,22.342 14.261,21.794 13.666,21.071 C13.315,20.644 13.377,20.014 13.804,19.663 C14.231,19.312 14.861,19.374 15.211,19.801 C15.542,20.204 16.007,20.515 16.57,20.662 C17.984,21.03 19.4,20.207 19.763,18.89 C19.863,18.527 20.158,18.251 20.526,18.176 Z M13.594,15.516 C14.696,14.106 16.595,13.423 18.434,13.902 C19.412,14.157 20.237,14.704 20.832,15.427 C21.183,15.853 21.122,16.483 20.695,16.834 C20.269,17.185 19.639,17.124 19.288,16.697 C18.956,16.295 18.493,15.984 17.93,15.837 C16.516,15.469 15.1,16.292 14.737,17.61 C14.637,17.972 14.342,18.248 13.973,18.324 C13.605,18.399 13.225,18.262 12.991,17.968 L11.968,16.685 C11.624,16.254 11.695,15.624 12.126,15.28 C12.558,14.936 13.187,15.007 13.532,15.438 Z M13.32,3.25 C12.986,3.25 12.674,3.417 12.488,3.695 L12.118,4.25 L18.863,4.25 L18.757,3.934 C18.621,3.525 18.239,3.25 17.809,3.25 Z" />
</svg>